<svg width="442" height="211" viewBox="0 0 442 211" fill="none" xmlns="http://www.w3.org/2000/svg">
<rect width="442" height="211" fill="#FFF9F9" fill-opacity="0.14"/>
<path d="M153.342 97V24.2727H177.916C183.598 24.2727 188.261 25.2434 191.907 27.1847C195.553 29.1023 198.252 31.7419 200.004 35.1037C201.756 38.4654 202.632 42.2888 202.632 46.5739C202.632 50.8589 201.756 54.6586 200.004 57.973C198.252 61.2874 195.565 63.8916 191.943 65.7855C188.321 67.6558 183.692 68.5909 178.058 68.5909H158.172V60.6364H177.774C181.656 60.6364 184.781 60.0682 187.149 58.9318C189.54 57.7955 191.268 56.1856 192.333 54.1023C193.422 51.9953 193.967 49.4858 193.967 46.5739C193.967 43.6619 193.422 41.1169 192.333 38.9389C191.244 36.7609 189.504 35.08 187.113 33.8963C184.722 32.6889 181.562 32.0852 177.632 32.0852H162.149V97H153.342ZM187.575 64.3295L205.473 97H195.245L177.632 64.3295H187.575ZM217.307 24.2727H227.818L252.534 84.642H253.386L278.102 24.2727H288.614V97H280.375V41.7443H279.665L256.938 97H248.983L226.256 41.7443H225.545V97H217.307V24.2727Z" fill="#FFDDB6"/>
<path d="M152.164 119V108.091H155.85C156.703 108.091 157.402 108.237 157.949 108.528C158.496 108.815 158.901 109.211 159.164 109.716C159.426 110.22 159.558 110.793 159.558 111.436C159.558 112.079 159.426 112.649 159.164 113.146C158.901 113.643 158.498 114.034 157.954 114.318C157.411 114.598 156.717 114.739 155.872 114.739H152.889V113.545H155.829C156.411 113.545 156.88 113.46 157.235 113.29C157.594 113.119 157.853 112.878 158.013 112.565C158.176 112.249 158.258 111.873 158.258 111.436C158.258 110.999 158.176 110.618 158.013 110.291C157.85 109.964 157.589 109.712 157.23 109.534C156.871 109.353 156.397 109.263 155.808 109.263H153.485V119H152.164ZM157.299 114.099L159.984 119H158.45L155.808 114.099H157.299ZM170.197 119V108.091H176.78V109.263H171.518V112.949H176.439V114.121H171.518V117.828H176.866V119H170.197ZM188.046 119H186.661L190.667 108.091H192.031L196.036 119H194.651L191.391 109.817H191.306L188.046 119ZM188.558 114.739H194.14V115.911H188.558V114.739ZM206.173 119V108.091H207.494V117.828H212.565V119H206.173ZM227.267 108.091H228.844L232.551 117.146H232.679L236.386 108.091H237.963V119H236.727V110.712H236.621L233.211 119H232.018L228.609 110.712H228.503V119H227.267V108.091ZM249.049 119V108.091H255.633V109.263H250.37V112.949H255.292V114.121H250.37V117.828H255.718V119H249.049ZM266.451 119V108.091H273.035V109.263H267.772V112.949H272.694V114.121H267.772V117.828H273.12V119H266.451ZM283.257 109.263V108.091H291.439V109.263H288.009V119H286.688V109.263H283.257Z" fill="#181818"/>
<rect x="196" y="89" width="25" height="8" fill="#FFDDB6"/>
</svg>
